<mxfile host="app.diagrams.net" modified="2023-06-10T14:32:17.338Z" agent="5.0 (Windows NT 10.0; Win64; x64) AppleWebKit/537.36 (KHTML, like Gecko) Chrome/114.0.0.0 Safari/537.36" etag="5zqbqMJMvIm3C18tQMBD" version="20.5.1" type="github">
  <diagram id="C5RBs43oDa-KdzZeNtuy" name="Page-1">
    <mxGraphModel dx="2128" dy="1112" grid="1" gridSize="10" guides="1" tooltips="1" connect="1" arrows="1" fold="1" page="1" pageScale="1" pageWidth="827" pageHeight="1169" math="0" shadow="0">
      <root>
        <mxCell id="WIyWlLk6GJQsqaUBKTNV-0" />
        <mxCell id="WIyWlLk6GJQsqaUBKTNV-1" parent="WIyWlLk6GJQsqaUBKTNV-0" />
        <mxCell id="WIyWlLk6GJQsqaUBKTNV-2" value="" style="rounded=0;html=1;jettySize=auto;orthogonalLoop=1;fontSize=11;endArrow=block;endFill=0;endSize=8;strokeWidth=1;shadow=0;labelBackgroundColor=none;edgeStyle=orthogonalEdgeStyle;entryX=0.5;entryY=0;entryDx=0;entryDy=0;" parent="WIyWlLk6GJQsqaUBKTNV-1" source="WIyWlLk6GJQsqaUBKTNV-3" target="MBAhKE62fHQmyjGzOPaJ-2" edge="1">
          <mxGeometry relative="1" as="geometry">
            <mxPoint x="220" y="170" as="targetPoint" />
          </mxGeometry>
        </mxCell>
        <mxCell id="WIyWlLk6GJQsqaUBKTNV-3" value="배열의 각각의 행을 &lt;br&gt;내림차순으로 정렬" style="rounded=1;whiteSpace=wrap;html=1;fontSize=12;glass=0;strokeWidth=1;shadow=0;" parent="WIyWlLk6GJQsqaUBKTNV-1" vertex="1">
          <mxGeometry x="740" y="320" width="120" height="70" as="geometry" />
        </mxCell>
        <mxCell id="MBAhKE62fHQmyjGzOPaJ-5" style="edgeStyle=orthogonalEdgeStyle;rounded=0;orthogonalLoop=1;jettySize=auto;html=1;exitX=0.5;exitY=1;exitDx=0;exitDy=0;" edge="1" parent="WIyWlLk6GJQsqaUBKTNV-1" source="MBAhKE62fHQmyjGzOPaJ-0" target="WIyWlLk6GJQsqaUBKTNV-3">
          <mxGeometry relative="1" as="geometry" />
        </mxCell>
        <mxCell id="MBAhKE62fHQmyjGzOPaJ-0" value="동적 배열 생성&amp;nbsp;&lt;br&gt;및 값 입력 받기" style="whiteSpace=wrap;html=1;rounded=1;glass=0;strokeWidth=1;shadow=0;" vertex="1" parent="WIyWlLk6GJQsqaUBKTNV-1">
          <mxGeometry x="740" y="470" width="120" height="60" as="geometry" />
        </mxCell>
        <mxCell id="MBAhKE62fHQmyjGzOPaJ-77" value="" style="edgeStyle=orthogonalEdgeStyle;rounded=0;orthogonalLoop=1;jettySize=auto;html=1;" edge="1" parent="WIyWlLk6GJQsqaUBKTNV-1" source="MBAhKE62fHQmyjGzOPaJ-2" target="MBAhKE62fHQmyjGzOPaJ-76">
          <mxGeometry relative="1" as="geometry" />
        </mxCell>
        <mxCell id="MBAhKE62fHQmyjGzOPaJ-2" value="반복횟수:(For i = 0~ 층수)" style="swimlane;startSize=20;" vertex="1" parent="WIyWlLk6GJQsqaUBKTNV-1">
          <mxGeometry x="30" y="340" width="645" height="1060" as="geometry" />
        </mxCell>
        <mxCell id="MBAhKE62fHQmyjGzOPaJ-75" style="edgeStyle=orthogonalEdgeStyle;rounded=0;orthogonalLoop=1;jettySize=auto;html=1;entryX=0.5;entryY=0;entryDx=0;entryDy=0;" edge="1" parent="MBAhKE62fHQmyjGzOPaJ-2" source="MBAhKE62fHQmyjGzOPaJ-7" target="MBAhKE62fHQmyjGzOPaJ-25">
          <mxGeometry relative="1" as="geometry" />
        </mxCell>
        <mxCell id="MBAhKE62fHQmyjGzOPaJ-7" value="반복횟수:(For k = 0~ 층의 악마수)" style="swimlane;startSize=30;" vertex="1" parent="MBAhKE62fHQmyjGzOPaJ-2">
          <mxGeometry x="42.5" y="30" width="560" height="840" as="geometry" />
        </mxCell>
        <mxCell id="MBAhKE62fHQmyjGzOPaJ-12" value="no" style="edgeStyle=orthogonalEdgeStyle;rounded=0;orthogonalLoop=1;jettySize=auto;html=1;entryX=0.5;entryY=0;entryDx=0;entryDy=0;" edge="1" parent="MBAhKE62fHQmyjGzOPaJ-7" source="MBAhKE62fHQmyjGzOPaJ-10" target="MBAhKE62fHQmyjGzOPaJ-13">
          <mxGeometry relative="1" as="geometry">
            <mxPoint x="250" y="200" as="targetPoint" />
          </mxGeometry>
        </mxCell>
        <mxCell id="MBAhKE62fHQmyjGzOPaJ-68" style="edgeStyle=orthogonalEdgeStyle;rounded=0;orthogonalLoop=1;jettySize=auto;html=1;exitX=1;exitY=0.5;exitDx=0;exitDy=0;" edge="1" parent="MBAhKE62fHQmyjGzOPaJ-7" source="MBAhKE62fHQmyjGzOPaJ-10" target="MBAhKE62fHQmyjGzOPaJ-7">
          <mxGeometry relative="1" as="geometry" />
        </mxCell>
        <mxCell id="MBAhKE62fHQmyjGzOPaJ-69" value="yes" style="edgeLabel;html=1;align=center;verticalAlign=middle;resizable=0;points=[];" vertex="1" connectable="0" parent="MBAhKE62fHQmyjGzOPaJ-68">
          <mxGeometry x="-0.4943" relative="1" as="geometry">
            <mxPoint as="offset" />
          </mxGeometry>
        </mxCell>
        <mxCell id="MBAhKE62fHQmyjGzOPaJ-10" value="문지기가&lt;br&gt;잡힘?" style="rhombus;whiteSpace=wrap;html=1;" vertex="1" parent="MBAhKE62fHQmyjGzOPaJ-7">
          <mxGeometry x="200" y="30" width="100" height="90" as="geometry" />
        </mxCell>
        <mxCell id="MBAhKE62fHQmyjGzOPaJ-13" value="반복횟수:(For j= 0~ 층의 악마수)" style="swimlane;" vertex="1" parent="MBAhKE62fHQmyjGzOPaJ-7">
          <mxGeometry x="40" y="190" width="500" height="620" as="geometry" />
        </mxCell>
        <mxCell id="MBAhKE62fHQmyjGzOPaJ-37" value="악마의 힘에 먹혔는가" style="rhombus;whiteSpace=wrap;html=1;" vertex="1" parent="MBAhKE62fHQmyjGzOPaJ-13">
          <mxGeometry x="145" y="30" width="150" height="100" as="geometry" />
        </mxCell>
        <mxCell id="MBAhKE62fHQmyjGzOPaJ-44" style="edgeStyle=orthogonalEdgeStyle;rounded=0;orthogonalLoop=1;jettySize=auto;html=1;exitX=0.5;exitY=1;exitDx=0;exitDy=0;" edge="1" parent="MBAhKE62fHQmyjGzOPaJ-13" source="MBAhKE62fHQmyjGzOPaJ-37" target="MBAhKE62fHQmyjGzOPaJ-37">
          <mxGeometry relative="1" as="geometry" />
        </mxCell>
        <mxCell id="MBAhKE62fHQmyjGzOPaJ-72" value="no" style="edgeStyle=orthogonalEdgeStyle;rounded=0;orthogonalLoop=1;jettySize=auto;html=1;" edge="1" parent="MBAhKE62fHQmyjGzOPaJ-13" source="MBAhKE62fHQmyjGzOPaJ-45" target="MBAhKE62fHQmyjGzOPaJ-13">
          <mxGeometry relative="1" as="geometry" />
        </mxCell>
        <mxCell id="MBAhKE62fHQmyjGzOPaJ-73" value="yes" style="edgeStyle=orthogonalEdgeStyle;rounded=0;orthogonalLoop=1;jettySize=auto;html=1;exitX=0.5;exitY=1;exitDx=0;exitDy=0;entryX=0.5;entryY=0;entryDx=0;entryDy=0;" edge="1" parent="MBAhKE62fHQmyjGzOPaJ-13" source="MBAhKE62fHQmyjGzOPaJ-45" target="MBAhKE62fHQmyjGzOPaJ-47">
          <mxGeometry relative="1" as="geometry" />
        </mxCell>
        <mxCell id="MBAhKE62fHQmyjGzOPaJ-45" value="방에 악마가 있나" style="rhombus;whiteSpace=wrap;html=1;" vertex="1" parent="MBAhKE62fHQmyjGzOPaJ-13">
          <mxGeometry x="80" y="170" width="150" height="100" as="geometry" />
        </mxCell>
        <mxCell id="MBAhKE62fHQmyjGzOPaJ-46" value="no" style="edgeStyle=orthogonalEdgeStyle;rounded=0;orthogonalLoop=1;jettySize=auto;html=1;" edge="1" parent="MBAhKE62fHQmyjGzOPaJ-13" source="MBAhKE62fHQmyjGzOPaJ-37" target="MBAhKE62fHQmyjGzOPaJ-45">
          <mxGeometry relative="1" as="geometry" />
        </mxCell>
        <mxCell id="MBAhKE62fHQmyjGzOPaJ-66" style="edgeStyle=orthogonalEdgeStyle;rounded=0;orthogonalLoop=1;jettySize=auto;html=1;exitX=0.5;exitY=1;exitDx=0;exitDy=0;entryX=0.094;entryY=-0.002;entryDx=0;entryDy=0;entryPerimeter=0;" edge="1" parent="MBAhKE62fHQmyjGzOPaJ-13" source="MBAhKE62fHQmyjGzOPaJ-47" target="MBAhKE62fHQmyjGzOPaJ-13">
          <mxGeometry relative="1" as="geometry" />
        </mxCell>
        <mxCell id="MBAhKE62fHQmyjGzOPaJ-67" value="no" style="edgeLabel;html=1;align=center;verticalAlign=middle;resizable=0;points=[];" vertex="1" connectable="0" parent="MBAhKE62fHQmyjGzOPaJ-66">
          <mxGeometry x="-0.4516" y="1" relative="1" as="geometry">
            <mxPoint as="offset" />
          </mxGeometry>
        </mxCell>
        <mxCell id="MBAhKE62fHQmyjGzOPaJ-47" value="내힘이 악마보다 쏀가" style="rhombus;whiteSpace=wrap;html=1;" vertex="1" parent="MBAhKE62fHQmyjGzOPaJ-13">
          <mxGeometry x="60" y="405" width="150" height="100" as="geometry" />
        </mxCell>
        <mxCell id="MBAhKE62fHQmyjGzOPaJ-63" value="잡은 악마 출력&amp;nbsp;&lt;br&gt;악마힘 흡수&amp;nbsp;&lt;br&gt;레벨업&amp;nbsp;&lt;br&gt;해당배열에서 악마 삭제" style="whiteSpace=wrap;html=1;" vertex="1" parent="MBAhKE62fHQmyjGzOPaJ-13">
          <mxGeometry x="330" y="380" width="135" height="150" as="geometry" />
        </mxCell>
        <mxCell id="MBAhKE62fHQmyjGzOPaJ-64" value="yes" style="edgeStyle=orthogonalEdgeStyle;rounded=0;orthogonalLoop=1;jettySize=auto;html=1;" edge="1" parent="MBAhKE62fHQmyjGzOPaJ-13" source="MBAhKE62fHQmyjGzOPaJ-47" target="MBAhKE62fHQmyjGzOPaJ-63">
          <mxGeometry relative="1" as="geometry" />
        </mxCell>
        <mxCell id="MBAhKE62fHQmyjGzOPaJ-74" style="edgeStyle=orthogonalEdgeStyle;rounded=0;orthogonalLoop=1;jettySize=auto;html=1;exitX=0.5;exitY=0;exitDx=0;exitDy=0;" edge="1" parent="MBAhKE62fHQmyjGzOPaJ-7" source="MBAhKE62fHQmyjGzOPaJ-63" target="MBAhKE62fHQmyjGzOPaJ-7">
          <mxGeometry relative="1" as="geometry" />
        </mxCell>
        <mxCell id="MBAhKE62fHQmyjGzOPaJ-80" style="edgeStyle=orthogonalEdgeStyle;rounded=0;orthogonalLoop=1;jettySize=auto;html=1;entryX=0.25;entryY=1;entryDx=0;entryDy=0;" edge="1" parent="MBAhKE62fHQmyjGzOPaJ-2" source="MBAhKE62fHQmyjGzOPaJ-25" target="MBAhKE62fHQmyjGzOPaJ-2">
          <mxGeometry relative="1" as="geometry" />
        </mxCell>
        <mxCell id="MBAhKE62fHQmyjGzOPaJ-81" value="no" style="edgeLabel;html=1;align=center;verticalAlign=middle;resizable=0;points=[];" vertex="1" connectable="0" parent="MBAhKE62fHQmyjGzOPaJ-80">
          <mxGeometry x="-0.0592" y="2" relative="1" as="geometry">
            <mxPoint as="offset" />
          </mxGeometry>
        </mxCell>
        <mxCell id="MBAhKE62fHQmyjGzOPaJ-83" value="다음층으로" style="edgeLabel;html=1;align=center;verticalAlign=middle;resizable=0;points=[];" vertex="1" connectable="0" parent="MBAhKE62fHQmyjGzOPaJ-80">
          <mxGeometry x="0.4156" y="3" relative="1" as="geometry">
            <mxPoint as="offset" />
          </mxGeometry>
        </mxCell>
        <mxCell id="MBAhKE62fHQmyjGzOPaJ-25" value="문지기가 있음?" style="rhombus;whiteSpace=wrap;html=1;fontStyle=1;startSize=30;" vertex="1" parent="MBAhKE62fHQmyjGzOPaJ-2">
          <mxGeometry x="240" y="900" width="130" height="130" as="geometry" />
        </mxCell>
        <mxCell id="MBAhKE62fHQmyjGzOPaJ-35" value="탈출불가&lt;br&gt;return -1" style="whiteSpace=wrap;html=1;fontStyle=1;startSize=30;" vertex="1" parent="WIyWlLk6GJQsqaUBKTNV-1">
          <mxGeometry x="750" y="1275" width="120" height="60" as="geometry" />
        </mxCell>
        <mxCell id="MBAhKE62fHQmyjGzOPaJ-36" value="yes" style="edgeStyle=orthogonalEdgeStyle;rounded=0;orthogonalLoop=1;jettySize=auto;html=1;" edge="1" parent="WIyWlLk6GJQsqaUBKTNV-1" source="MBAhKE62fHQmyjGzOPaJ-25" target="MBAhKE62fHQmyjGzOPaJ-35">
          <mxGeometry relative="1" as="geometry" />
        </mxCell>
        <mxCell id="MBAhKE62fHQmyjGzOPaJ-42" value="악마가 되었다&lt;br&gt;return -2" style="whiteSpace=wrap;html=1;" vertex="1" parent="WIyWlLk6GJQsqaUBKTNV-1">
          <mxGeometry x="759" y="650" width="120" height="60" as="geometry" />
        </mxCell>
        <mxCell id="MBAhKE62fHQmyjGzOPaJ-43" value="yes" style="edgeStyle=orthogonalEdgeStyle;rounded=0;orthogonalLoop=1;jettySize=auto;html=1;" edge="1" parent="WIyWlLk6GJQsqaUBKTNV-1" source="MBAhKE62fHQmyjGzOPaJ-37" target="MBAhKE62fHQmyjGzOPaJ-42">
          <mxGeometry relative="1" as="geometry" />
        </mxCell>
        <mxCell id="MBAhKE62fHQmyjGzOPaJ-79" value="" style="edgeStyle=orthogonalEdgeStyle;rounded=0;orthogonalLoop=1;jettySize=auto;html=1;" edge="1" parent="WIyWlLk6GJQsqaUBKTNV-1" source="MBAhKE62fHQmyjGzOPaJ-76" target="MBAhKE62fHQmyjGzOPaJ-78">
          <mxGeometry relative="1" as="geometry" />
        </mxCell>
        <mxCell id="MBAhKE62fHQmyjGzOPaJ-76" value="대마왕 잡음&lt;br&gt;현재 래벨과&amp;nbsp; 현재 힘 출력" style="whiteSpace=wrap;html=1;fontStyle=1;startSize=20;" vertex="1" parent="WIyWlLk6GJQsqaUBKTNV-1">
          <mxGeometry x="720" y="885" width="229" height="60" as="geometry" />
        </mxCell>
        <mxCell id="MBAhKE62fHQmyjGzOPaJ-78" value="선언한 동적배열 프리" style="whiteSpace=wrap;html=1;fontStyle=1;startSize=20;" vertex="1" parent="WIyWlLk6GJQsqaUBKTNV-1">
          <mxGeometry x="759" y="1080" width="159" height="60" as="geometry" />
        </mxCell>
      </root>
    </mxGraphModel>
  </diagram>
</mxfile>
